M48
; DRILL file KiCad 10.0.1 date 2026-05-20T03:17:36
; FORMAT={-:-/ absolute / inch / decimal}
; #@! TF.CreationDate,2026-05-20T03:17:36-07:00
; #@! TF.GenerationSoftware,Kicad,Pcbnew,10.0.1
; #@! TF.FileFunction,Plated,1,4,PTH
FMAT,2
INCH
; #@! TA.AperFunction,Plated,PTH,ViaDrill
T1C0.0118
; #@! TA.AperFunction,Plated,PTH,ViaDrill
T2C0.0157
; #@! TA.AperFunction,Plated,PTH,ComponentDrill
T3C0.0236
; #@! TA.AperFunction,Plated,PTH,ComponentDrill
T4C0.0295
; #@! TA.AperFunction,Plated,PTH,ComponentDrill
T5C0.0394
; #@! TA.AperFunction,Plated,PTH,ComponentDrill
T6C0.1299
; #@! TA.AperFunction,Plated,PTH,ComponentDrill
T7C0.1811
%
G90
G05
T1
X3.994Y-1.626
X3.994Y-1.646
X3.994Y-1.666
X3.996Y-1.562
X4.004Y-1.755
X4.01Y-1.378
X4.014Y-1.626
X4.014Y-1.646
X4.014Y-1.666
X4.016Y-1.562
X4.0244Y-1.846
X4.034Y-1.626
X4.034Y-1.646
X4.034Y-1.666
X4.0352Y-1.755
X4.036Y-1.562
X4.054Y-1.626
X4.054Y-1.646
X4.054Y-1.666
X4.056Y-1.562
X4.074Y-1.73
X4.076Y-1.754
X4.0974Y-1.749
X4.0974Y-1.769
X4.0974Y-1.789
X4.098Y-1.708
X4.098Y-1.728
X4.104Y-1.63
X4.1174Y-1.749
X4.1174Y-1.769
X4.1174Y-1.789
X4.118Y-1.688
X4.118Y-1.708
X4.118Y-1.728
X4.1373Y-1.789
X4.1374Y-1.749
X4.1374Y-1.769
X4.138Y-1.708
X4.138Y-1.728
X4.154Y-2.074
X4.154Y-2.096
X4.154Y-2.12
X4.154Y-2.144
X4.154Y-2.168
X4.154Y-2.192
X4.154Y-2.218
X4.157Y-1.789
X4.1574Y-1.749
X4.1574Y-1.769
X4.158Y-1.728
X4.17Y-1.632
X4.1774Y-1.749
X4.1774Y-1.769
X4.1774Y-1.789
X4.18Y-2.074
X4.18Y-2.096
X4.18Y-2.12
X4.18Y-2.144
X4.18Y-2.168
X4.18Y-2.192
X4.18Y-2.218
X4.1974Y-1.769
X4.198Y-1.79
X4.2083Y-1.3792
X4.2257Y-1.508
X4.2307Y-2.154
X4.241Y-1.933
X4.25Y-2.002
X4.266Y-1.964
X4.2859Y-1.6677
X4.286Y-1.562
X4.286Y-1.628
X4.2866Y-1.648
X4.296Y-1.756
X4.3053Y-1.3802
X4.306Y-1.562
X4.3066Y-1.668
X4.3066Y-1.628
X4.3066Y-1.648
X4.314Y-2.044
X4.314Y-2.12
X4.324Y-1.96
X4.326Y-1.562
X4.3263Y-1.6677
X4.3266Y-1.628
X4.3266Y-1.648
X4.328Y-1.986
X4.336Y-1.756
X4.338Y-2.222
X4.338Y-2.202
X4.338Y-2.242
X4.344Y-1.846
X4.346Y-1.562
X4.3462Y-1.668
X4.3466Y-1.9668
X4.3466Y-1.628
X4.3466Y-1.648
X4.363Y-2.222
X4.3706Y-1.73
X4.3706Y-1.75
X4.3876Y-1.9203
X4.39Y-1.771
X4.39Y-1.791
X4.3903Y-1.75
X4.3906Y-1.71
X4.3906Y-1.73
X4.404Y-2.039
X4.4046Y-1.979
X4.4046Y-1.9988
X4.4047Y-2.0188
X4.4049Y-2.0588
X4.405Y-2.0788
X4.405Y-2.0988
X4.408Y-1.634
X4.41Y-1.751
X4.41Y-1.771
X4.41Y-1.791
X4.4106Y-1.69
X4.4106Y-1.71
X4.4106Y-1.73
X4.4292Y-1.9372
X4.43Y-1.751
X4.43Y-1.771
X4.4306Y-1.71
X4.4306Y-1.73
X4.4316Y-1.791
X4.4458Y-1.6286
X4.459Y-1.889
X4.4639Y-2.1223
X4.466Y-2.27
X4.47Y-1.751
X4.47Y-1.771
X4.47Y-1.791
X4.48Y-1.9372
X4.49Y-1.771
X4.4906Y-1.792
X4.5096Y-1.5112
X4.5142Y-1.9427
X4.5239Y-1.8842
X4.528Y-1.396
X4.546Y-1.824
X4.5625Y-1.885
X4.572Y-1.624
X4.572Y-1.644
X4.572Y-1.664
X4.572Y-2.47
X4.574Y-1.562
X4.578Y-2.268
X4.5826Y-2.1238
X4.5826Y-2.0841
X4.5826Y-2.1041
X4.5833Y-1.9988
X4.5834Y-1.9788
X4.5835Y-1.9588
X4.5893Y-1.3702
X4.59Y-1.885
X4.5904Y-2.0394
X4.592Y-1.624
X4.592Y-1.644
X4.592Y-1.664
X4.594Y-1.562
X4.6063Y-2.32
X4.612Y-1.624
X4.612Y-1.644
X4.612Y-1.664
X4.614Y-1.562
X4.6164Y-1.8044
X4.6263Y-1.3712
X4.632Y-1.624
X4.632Y-1.644
X4.632Y-1.664
X4.634Y-1.562
X4.637Y-2.0206
X4.642Y-1.692
X4.642Y-1.712
X4.642Y-1.732
X4.642Y-1.752
X4.67Y-2.244
X4.676Y-1.69
X4.676Y-1.751
X4.676Y-1.771
X4.676Y-1.791
X4.6766Y-1.71
X4.6766Y-1.73
X4.686Y-2.004
X4.696Y-1.751
X4.696Y-1.771
X4.696Y-1.791
X4.6966Y-1.69
X4.6966Y-1.71
X4.6966Y-1.73
X4.6968Y-1.9628
X4.7Y-2.38
X4.7012Y-1.9332
X4.702Y-2.052
X4.716Y-1.751
X4.716Y-1.771
X4.7166Y-1.71
X4.7166Y-1.73
X4.7176Y-1.791
X4.72Y-2.142
X4.724Y-2.052
X4.728Y-2.44
X4.729Y-1.629
X4.7323Y-2.698
X4.754Y-2.6788
X4.756Y-1.751
X4.756Y-1.771
X4.756Y-1.791
X4.76Y-2.38
X4.764Y-2.758
X4.7662Y-2.4198
X4.768Y-1.63
X4.776Y-1.771
X4.7766Y-1.792
X4.78Y-1.868
X4.788Y-2.6394
X4.794Y-2.717
X4.794Y-2.739
X4.794Y-2.761
X4.806Y-2.562
X4.806Y-2.582
X4.819Y-2.717
X4.819Y-2.739
X4.819Y-2.761
X4.826Y-2.562
X4.826Y-2.582
X4.846Y-2.582
X4.89Y-2.21
X4.9124Y-2.4787
X4.934Y-2.8129
X4.94Y-2.484
X4.962Y-2.484
X4.9651Y-2.5269
X4.981Y-2.837
X4.99Y-2.476
X5.005Y-2.837
X5.0438Y-2.828
X5.044Y-2.526
X5.045Y-2.61
X5.07Y-2.828
X5.072Y-1.636
X5.072Y-1.656
X5.072Y-1.676
X5.074Y-1.572
X5.08Y-2.635
X5.082Y-1.765
X5.084Y-2.518
X5.088Y-1.388
X5.092Y-1.636
X5.092Y-1.656
X5.092Y-1.676
X5.094Y-1.572
X5.098Y-2.828
X5.1024Y-1.858
X5.105Y-2.655
X5.112Y-1.636
X5.112Y-1.656
X5.112Y-1.676
X5.1132Y-1.765
X5.114Y-1.572
X5.1181Y-2.8425
X5.1205Y-2.7713
X5.1205Y-2.8028
X5.132Y-1.636
X5.132Y-1.656
X5.132Y-1.676
X5.1339Y-2.8268
X5.134Y-1.572
X5.1402Y-2.6848
X5.148Y-2.844
X5.1496Y-2.811
X5.154Y-1.738
X5.154Y-1.758
X5.155Y-2.745
X5.1725Y-2.4825
X5.1754Y-1.759
X5.1754Y-1.779
X5.1754Y-1.799
X5.176Y-1.718
X5.176Y-1.738
X5.182Y-1.64
X5.1954Y-1.759
X5.1954Y-1.779
X5.1954Y-1.799
X5.196Y-1.6983
X5.196Y-1.718
X5.196Y-1.738
X5.205Y-2.51
X5.2154Y-1.759
X5.2154Y-1.779
X5.216Y-1.718
X5.216Y-1.738
X5.217Y-1.799
X5.23Y-2.53
X5.2354Y-1.759
X5.2354Y-1.779
X5.236Y-1.738
X5.237Y-1.799
X5.24Y-2.445
X5.245Y-2.66
X5.245Y-2.91
X5.2469Y-2.89
X5.248Y-1.642
X5.2551Y-1.7605
X5.258Y-1.78
X5.258Y-1.8
X5.265Y-2.68
X5.265Y-2.76
X5.2778Y-1.7804
X5.28Y-1.8
X5.28Y-2.24
X5.284Y-2.014
X5.285Y-2.6985
X5.2863Y-1.3892
X5.2894Y-2.89
X5.2913Y-2.91
X5.299Y-1.955
X5.299Y-1.975
X5.3Y-2.205
X5.301Y-1.917
X5.3017Y-1.5198
X5.31Y-2.874
X5.315Y-2.74
X5.321Y-1.955
X5.321Y-1.975
X5.332Y-2.874
X5.342Y-1.955
X5.364Y-1.572
X5.3646Y-1.638
X5.3646Y-1.658
X5.3646Y-1.678
X5.374Y-1.766
X5.3833Y-1.3902
X5.384Y-1.572
X5.3846Y-1.638
X5.3846Y-1.658
X5.3846Y-1.678
X5.388Y-1.952
X5.39Y-1.982
X5.392Y-2.054
X5.3937Y-2.748
X5.3943Y-2.1487
X5.3957Y-2.4557
X5.396Y-2.498
X5.396Y-2.52
X5.396Y-2.541
X5.3962Y-2.186
X5.404Y-1.572
X5.4046Y-1.638
X5.4046Y-1.658
X5.4046Y-1.678
X5.414Y-1.766
X5.414Y-1.996
X5.417Y-2.498
X5.417Y-2.52
X5.418Y-2.541
X5.42Y-2.28
X5.42Y-2.468
X5.424Y-2.232
X5.424Y-1.572
X5.424Y-2.212
X5.424Y-2.252
X5.4246Y-1.638
X5.4246Y-1.658
X5.4246Y-1.678
X5.4369Y-1.83
X5.438Y-2.497
X5.438Y-2.519
X5.446Y-1.746
X5.448Y-1.768
X5.449Y-2.23
X5.455Y-2.3
X5.463Y-1.927
X5.468Y-1.761
X5.468Y-1.781
X5.468Y-1.801
X5.4686Y-1.72
X5.4686Y-1.74
X5.475Y-2.365
X5.4784Y-2.3032
X5.482Y-2.049
X5.4826Y-1.9888
X5.4826Y-2.0088
X5.4827Y-2.0288
X5.4829Y-2.0688
X5.483Y-2.0888
X5.483Y-2.1088
X5.486Y-1.644
X5.488Y-1.7
X5.488Y-1.761
X5.488Y-1.781
X5.488Y-1.801
X5.4886Y-1.72
X5.4886Y-1.74
X5.5072Y-1.9472
X5.508Y-1.761
X5.508Y-1.781
X5.5086Y-1.72
X5.5086Y-1.74
X5.5096Y-1.801
X5.5238Y-1.6386
X5.537Y-1.899
X5.5419Y-2.1323
X5.548Y-1.761
X5.548Y-1.781
X5.548Y-1.801
X5.5591Y-2.4961
X5.562Y-1.9453
X5.568Y-1.781
X5.5686Y-1.802
X5.5897Y-1.5212
X5.5913Y-1.9526
X5.6019Y-1.8962
X5.606Y-1.406
X5.61Y-2.2286
X5.624Y-1.834
X5.627Y-2.274
X5.63Y-2.568
X5.63Y-2.591
X5.6405Y-1.896
X5.645Y-2.547
X5.6499Y-1.6339
X5.65Y-1.654
X5.65Y-1.674
X5.65Y-2.287
X5.65Y-2.309
X5.652Y-1.572
X5.653Y-2.568
X5.653Y-2.591
X5.6605Y-2.1336
X5.6605Y-2.094
X5.6605Y-2.074
X5.6606Y-2.1139
X5.6606Y-2.0519
X5.6612Y-2.0288
X5.6613Y-2.0088
X5.6614Y-1.9888
X5.6615Y-1.9688
X5.6673Y-1.3802
X5.668Y-1.896
X5.6699Y-1.6339
X5.67Y-1.654
X5.67Y-1.674
X5.672Y-1.572
X5.672Y-2.286
X5.673Y-2.308
X5.676Y-2.568
X5.676Y-2.591
X5.6899Y-1.6339
X5.69Y-1.654
X5.69Y-1.674
X5.692Y-1.572
X5.694Y-2.286
X5.694Y-2.307
X5.6944Y-1.8144
X5.698Y-2.568
X5.698Y-2.591
X5.7043Y-1.3812
X5.7099Y-1.6339
X5.71Y-1.654
X5.71Y-1.674
X5.71Y-2.0308
X5.712Y-1.572
X5.7198Y-1.7416
X5.72Y-1.7022
X5.72Y-1.762
X5.72Y-2.568
X5.72Y-2.591
X5.72Y-1.7219
X5.73Y-2.05
X5.73Y-2.525
X5.73Y-2.547
X5.743Y-2.568
X5.753Y-2.525
X5.753Y-2.547
X5.754Y-1.7
X5.754Y-1.761
X5.754Y-1.781
X5.754Y-1.801
X5.7542Y-1.9519
X5.7546Y-1.72
X5.7546Y-1.74
X5.76Y-1.9748
X5.76Y-2.014
X5.765Y-2.568
X5.7698Y-2.2047
X5.77Y-2.2299
X5.77Y-2.18
X5.774Y-1.761
X5.774Y-1.781
X5.774Y-1.801
X5.7746Y-1.7
X5.7746Y-1.72
X5.7746Y-1.74
X5.775Y-2.525
X5.775Y-2.547
X5.7898Y-2.2047
X5.79Y-2.2299
X5.79Y-2.18
X5.794Y-1.761
X5.794Y-1.781
X5.7946Y-1.72
X5.7946Y-1.74
X5.7956Y-1.801
X5.807Y-1.639
X5.8189Y-2.4961
X5.8279Y-2.0238
X5.832Y-1.761
X5.832Y-1.781
X5.832Y-1.801
X5.8419Y-2.1198
X5.846Y-1.64
X5.8499Y-2.0238
X5.852Y-1.781
X5.852Y-1.8007
X5.858Y-1.878
T2
X4.648Y-2.9213
X4.9163Y-2.8363
X4.926Y-2.69
X4.985Y-2.447
X5.18Y-2.867
X5.65Y-2.6453
X5.6876Y-2.6453
X5.844Y-2.812
T4
X4.4499Y-2.8123
X4.5286Y-2.8123
X4.6074Y-2.8123
X4.6861Y-2.8123
X4.8458Y-2.1063
X4.8458Y-2.348
X4.9245Y-2.1063
X4.9245Y-2.348
X5.0033Y-2.1063
X5.0033Y-2.348
X5.082Y-2.1063
X5.082Y-2.348
X5.1607Y-2.1063
X5.1607Y-2.348
X5.2395Y-2.1063
X5.2395Y-2.348
T5
X4.0311Y-2.024
X4.1689Y-2.024
T6
X4.1673Y-1.19
X4.3838Y-1.19
X4.6004Y-1.19
X5.2453Y-1.2
X5.4618Y-1.2
X5.6784Y-1.2
T7
X4.092Y-2.4983
X4.092Y-2.7817
T3
G00X5.5099Y-2.6964
M15
G01X5.5099Y-2.7397
M16
G05
G00X5.5099Y-2.8677
M15
G01X5.5099Y-2.8991
M16
G05
G00X5.8501Y-2.6964
M15
G01X5.8501Y-2.7397
M16
G05
G00X5.8501Y-2.8677
M15
G01X5.8501Y-2.8991
M16
G05
M30
