%TF.GenerationSoftware,KiCad,Pcbnew,10.0.1*%
%TF.CreationDate,2026-05-20T04:19:32-07:00*%
%TF.ProjectId,simpleFOC Dual Motor Controller,73696d70-6c65-4464-9f43-204475616c20,rev?*%
%TF.SameCoordinates,Original*%
%TF.FileFunction,Soldermask,Top*%
%TF.FilePolarity,Negative*%
%FSLAX46Y46*%
G04 Gerber Fmt 4.6, Leading zero omitted, Abs format (unit mm)*
G04 Created by KiCad (PCBNEW 10.0.1) date 2026-05-20 04:19:32*
%MOMM*%
%LPD*%
G01*
G04 APERTURE LIST*
G04 Aperture macros list*
%AMRoundRect*
0 Rectangle with rounded corners*
0 $1 Rounding radius*
0 $2 $3 $4 $5 $6 $7 $8 $9 X,Y pos of 4 corners*
0 Add a 4 corners polygon primitive as box body*
4,1,4,$2,$3,$4,$5,$6,$7,$8,$9,$2,$3,0*
0 Add four circle primitives for the rounded corners*
1,1,$1+$1,$2,$3*
1,1,$1+$1,$4,$5*
1,1,$1+$1,$6,$7*
1,1,$1+$1,$8,$9*
0 Add four rect primitives between the rounded corners*
20,1,$1+$1,$2,$3,$4,$5,0*
20,1,$1+$1,$4,$5,$6,$7,0*
20,1,$1+$1,$6,$7,$8,$9,0*
20,1,$1+$1,$8,$9,$2,$3,0*%
G04 Aperture macros list end*
%ADD10RoundRect,0.250000X-0.650000X0.325000X-0.650000X-0.325000X0.650000X-0.325000X0.650000X0.325000X0*%
%ADD11RoundRect,0.135000X0.135000X0.185000X-0.135000X0.185000X-0.135000X-0.185000X0.135000X-0.185000X0*%
%ADD12RoundRect,0.225000X0.250000X-0.225000X0.250000X0.225000X-0.250000X0.225000X-0.250000X-0.225000X0*%
%ADD13RoundRect,0.135000X-0.185000X0.135000X-0.185000X-0.135000X0.185000X-0.135000X0.185000X0.135000X0*%
%ADD14R,0.400000X0.800000*%
%ADD15R,2.450000X2.000000*%
%ADD16RoundRect,0.135000X0.185000X-0.135000X0.185000X0.135000X-0.185000X0.135000X-0.185000X-0.135000X0*%
%ADD17R,1.860000X1.230000*%
%ADD18RoundRect,0.250000X-1.425000X0.362500X-1.425000X-0.362500X1.425000X-0.362500X1.425000X0.362500X0*%
%ADD19C,1.448000*%
%ADD20RoundRect,0.112500X0.112500X-0.187500X0.112500X0.187500X-0.112500X0.187500X-0.112500X-0.187500X0*%
%ADD21R,0.600000X0.800000*%
%ADD22RoundRect,0.250000X1.000000X0.650000X-1.000000X0.650000X-1.000000X-0.650000X1.000000X-0.650000X0*%
%ADD23RoundRect,0.225000X-0.250000X0.225000X-0.250000X-0.225000X0.250000X-0.225000X0.250000X0.225000X0*%
%ADD24RoundRect,0.135000X-0.135000X-0.185000X0.135000X-0.185000X0.135000X0.185000X-0.135000X0.185000X0*%
%ADD25RoundRect,0.140000X0.140000X0.170000X-0.140000X0.170000X-0.140000X-0.170000X0.140000X-0.170000X0*%
%ADD26RoundRect,0.250000X-0.350000X-0.625000X0.350000X-0.625000X0.350000X0.625000X-0.350000X0.625000X0*%
%ADD27O,1.200000X1.750000*%
%ADD28RoundRect,0.140000X0.170000X-0.140000X0.170000X0.140000X-0.170000X0.140000X-0.170000X-0.140000X0*%
%ADD29O,0.800000X0.280000*%
%ADD30O,0.280000X0.800000*%
%ADD31R,4.200000X4.200000*%
%ADD32C,5.600000*%
%ADD33R,0.300000X0.600000*%
%ADD34RoundRect,0.140000X-0.170000X0.140000X-0.170000X-0.140000X0.170000X-0.140000X0.170000X0.140000X0*%
%ADD35C,5.000000*%
%ADD36RoundRect,0.112500X0.187500X0.112500X-0.187500X0.112500X-0.187500X-0.112500X0.187500X-0.112500X0*%
%ADD37RoundRect,0.218750X-0.256250X0.218750X-0.256250X-0.218750X0.256250X-0.218750X0.256250X0.218750X0*%
%ADD38C,1.600000*%
%ADD39RoundRect,0.140000X-0.140000X-0.170000X0.140000X-0.170000X0.140000X0.170000X-0.140000X0.170000X0*%
%ADD40R,1.070000X0.600000*%
%ADD41R,1.000000X0.650000*%
%ADD42O,1.000000X2.000000*%
%ADD43O,1.000000X1.800000*%
%ADD44R,0.300000X1.100000*%
%ADD45R,0.500000X1.100000*%
%ADD46RoundRect,0.075000X0.662500X0.075000X-0.662500X0.075000X-0.662500X-0.075000X0.662500X-0.075000X0*%
%ADD47RoundRect,0.075000X0.075000X0.662500X-0.075000X0.662500X-0.075000X-0.662500X0.075000X-0.662500X0*%
%ADD48RoundRect,0.225000X0.225000X0.250000X-0.225000X0.250000X-0.225000X-0.250000X0.225000X-0.250000X0*%
G04 APERTURE END LIST*
D10*
%TO.C,C110*%
X109626400Y-40536600D03*
X109626400Y-43486600D03*
%TD*%
D11*
%TO.C,R207*%
X140667200Y-58216800D03*
X139647200Y-58216800D03*
%TD*%
D12*
%TO.C,C203*%
X144678400Y-57213800D03*
X144678400Y-55663800D03*
%TD*%
D13*
%TO.C,R211*%
X133800000Y-71016400D03*
X133800000Y-72036400D03*
%TD*%
D14*
%TO.C,Q902*%
X112286249Y-38888800D03*
X112946249Y-38888800D03*
X113596249Y-38888800D03*
X114246249Y-38888800D03*
X112286249Y-35888800D03*
X112936249Y-35888800D03*
D15*
X113266249Y-37038800D03*
D14*
X113596249Y-35888800D03*
X114246249Y-35888800D03*
%TD*%
D16*
%TO.C,R222*%
X122017852Y-73706278D03*
X122017852Y-72686278D03*
%TD*%
D17*
%TO.C,SW101*%
X137678240Y-61235011D03*
X137678240Y-65595011D03*
%TD*%
D18*
%TO.C,Rsns401*%
X140122287Y-40699524D03*
X140122287Y-46624524D03*
%TD*%
D14*
%TO.C,Q901*%
X110607903Y-35908555D03*
X109947903Y-35908555D03*
X109297903Y-35908555D03*
X108647903Y-35908555D03*
X110607903Y-38908555D03*
X109957903Y-38908555D03*
D15*
X109627903Y-37758555D03*
D14*
X109297903Y-38908555D03*
X108647903Y-38908555D03*
%TD*%
%TO.C,Q302*%
X145182709Y-36171824D03*
X144522709Y-36171824D03*
X143872709Y-36171824D03*
X143222709Y-36171824D03*
X145182709Y-39171824D03*
X144532709Y-39171824D03*
D15*
X144202709Y-38021824D03*
D14*
X143872709Y-39171824D03*
X143222709Y-39171824D03*
%TD*%
D19*
%TO.C,H107*%
X148716949Y-49784000D03*
%TD*%
D14*
%TO.C,Q702*%
X119479855Y-38898069D03*
X120139855Y-38898069D03*
X120789855Y-38898069D03*
X121439855Y-38898069D03*
X119479855Y-35898069D03*
X120129855Y-35898069D03*
D15*
X120459855Y-37048069D03*
D14*
X120789855Y-35898069D03*
X121439855Y-35898069D03*
%TD*%
D18*
%TO.C,Rsns101*%
X120065260Y-40445524D03*
X120065260Y-46370524D03*
%TD*%
D20*
%TO.C,D107*%
X109372337Y-74249391D03*
X109372337Y-72149391D03*
%TD*%
D21*
%TO.C,U104*%
X148882799Y-64713225D03*
X147382799Y-64713225D03*
%TD*%
D10*
%TO.C,C301*%
X144221200Y-40739800D03*
X144221200Y-43689800D03*
%TD*%
D22*
%TO.C,D101*%
X105987600Y-57404000D03*
X101987600Y-57404000D03*
%TD*%
D19*
%TO.C,H103*%
X112014000Y-65532000D03*
%TD*%
D23*
%TO.C,C207*%
X118668800Y-52248424D03*
X118668800Y-53798424D03*
%TD*%
D24*
%TO.C,R402*%
X136497600Y-46482000D03*
X137517600Y-46482000D03*
%TD*%
%TO.C,R203*%
X140356400Y-56032400D03*
X141376400Y-56032400D03*
%TD*%
D25*
%TO.C,C204*%
X139341800Y-56133339D03*
X138381800Y-56133339D03*
%TD*%
D24*
%TO.C,R208*%
X142492000Y-57277000D03*
X143512000Y-57277000D03*
%TD*%
D26*
%TO.C,J103*%
X123082800Y-53501200D03*
D27*
X125082800Y-53501200D03*
X127082800Y-53501200D03*
X129082800Y-53501200D03*
X131082800Y-53501200D03*
X133082800Y-53501200D03*
%TD*%
D11*
%TO.C,R112*%
X146910000Y-61200000D03*
X145890000Y-61200000D03*
%TD*%
D24*
%TO.C,R301*%
X143762000Y-45415200D03*
X144782000Y-45415200D03*
%TD*%
D11*
%TO.C,R501*%
X130050000Y-45415200D03*
X129030000Y-45415200D03*
%TD*%
D16*
%TO.C,R220*%
X109067600Y-54866000D03*
X109067600Y-53846000D03*
%TD*%
D23*
%TO.C,C202*%
X147120241Y-51594600D03*
X147120241Y-53144600D03*
%TD*%
D16*
%TO.C,R114*%
X136000000Y-72000000D03*
X136000000Y-70980000D03*
%TD*%
D11*
%TO.C,R113*%
X144910000Y-61200000D03*
X143890000Y-61200000D03*
%TD*%
D20*
%TO.C,D104*%
X137795000Y-72517000D03*
X137795000Y-70417000D03*
%TD*%
D14*
%TO.C,Q801*%
X103155163Y-35917824D03*
X102495163Y-35917824D03*
X101845163Y-35917824D03*
X101195163Y-35917824D03*
X103155163Y-38917824D03*
X102505163Y-38917824D03*
D15*
X102175163Y-37767824D03*
D14*
X101845163Y-38917824D03*
X101195163Y-38917824D03*
%TD*%
D28*
%TO.C,C112*%
X145200000Y-59480000D03*
X145200000Y-58520000D03*
%TD*%
D13*
%TO.C,R601*%
X108000800Y-54201600D03*
X108000800Y-55221600D03*
%TD*%
D29*
%TO.C,U201*%
X144528460Y-54159424D03*
X144528460Y-53659424D03*
X144528460Y-53159424D03*
X144528460Y-52659424D03*
X144528460Y-52159424D03*
X144528460Y-51659424D03*
X144528460Y-51159424D03*
X144528460Y-50659424D03*
X144528460Y-50159424D03*
X144528460Y-49659424D03*
D30*
X143778460Y-48909424D03*
X143278460Y-48909424D03*
X142778460Y-48909424D03*
X142278460Y-48909424D03*
X141778460Y-48909424D03*
X141278460Y-48909424D03*
X140778460Y-48909424D03*
X140278460Y-48909424D03*
X139778460Y-48909424D03*
X139278460Y-48909424D03*
D29*
X138528460Y-49659424D03*
X138528460Y-50159424D03*
X138528460Y-50659424D03*
X138528460Y-51159424D03*
X138528460Y-51659424D03*
X138528460Y-52159424D03*
X138528460Y-52659424D03*
X138528460Y-53159424D03*
X138528460Y-53659424D03*
X138528460Y-54159424D03*
D30*
X139278460Y-54909424D03*
X139778460Y-54909424D03*
X140278460Y-54909424D03*
X140778460Y-54909424D03*
X141278460Y-54909424D03*
X141778460Y-54909424D03*
X142278460Y-54909424D03*
X142778460Y-54909424D03*
X143278460Y-54909424D03*
X143778460Y-54909424D03*
D31*
X141528460Y-51909424D03*
%TD*%
D25*
%TO.C,C210*%
X111757400Y-55930800D03*
X110797400Y-55930800D03*
%TD*%
D14*
%TO.C,Q502*%
X130536363Y-36171824D03*
X129876363Y-36171824D03*
X129226363Y-36171824D03*
X128576363Y-36171824D03*
X130536363Y-39171824D03*
X129886363Y-39171824D03*
D15*
X129556363Y-38021824D03*
D14*
X129226363Y-39171824D03*
X128576363Y-39171824D03*
%TD*%
D16*
%TO.C,R212*%
X110059427Y-52914666D03*
X110059427Y-51894666D03*
%TD*%
D32*
%TO.C,CN101*%
X103936800Y-70656000D03*
X103936800Y-63456000D03*
%TD*%
D11*
%TO.C,R106*%
X102668800Y-45161200D03*
X101648800Y-45161200D03*
%TD*%
D33*
%TO.C,D103*%
X145100000Y-66548000D03*
X144460000Y-66548000D03*
%TD*%
D11*
%TO.C,R111*%
X122760000Y-50750000D03*
X121740000Y-50750000D03*
%TD*%
D26*
%TO.C,J104*%
X123082800Y-59639200D03*
D27*
X125082800Y-59639200D03*
X127082800Y-59639200D03*
X129082800Y-59639200D03*
X131082800Y-59639200D03*
X133082800Y-59639200D03*
%TD*%
D34*
%TO.C,C113*%
X122936000Y-63426400D03*
X122936000Y-64386400D03*
%TD*%
D24*
%TO.C,R103*%
X101648800Y-46228000D03*
X102668800Y-46228000D03*
%TD*%
D14*
%TO.C,Q402*%
X137989103Y-36162555D03*
X137329103Y-36162555D03*
X136679103Y-36162555D03*
X136029103Y-36162555D03*
X137989103Y-39162555D03*
X137339103Y-39162555D03*
D15*
X137009103Y-38012555D03*
D14*
X136679103Y-39162555D03*
X136029103Y-39162555D03*
%TD*%
D24*
%TO.C,R401*%
X136497600Y-45415200D03*
X137517600Y-45415200D03*
%TD*%
D13*
%TO.C,R223*%
X136448800Y-54100000D03*
X136448800Y-55120000D03*
%TD*%
D11*
%TO.C,R206*%
X139397200Y-57149339D03*
X138377200Y-57149339D03*
%TD*%
%TO.C,R210*%
X137035000Y-56642000D03*
X136015000Y-56642000D03*
%TD*%
D35*
%TO.C,CN202*%
X116849449Y-30226000D03*
X111349449Y-30226000D03*
X105849449Y-30226000D03*
%TD*%
D11*
%TO.C,R107*%
X141988000Y-66802000D03*
X140968000Y-66802000D03*
%TD*%
D16*
%TO.C,R202*%
X137440627Y-53168666D03*
X137440627Y-52148666D03*
%TD*%
D36*
%TO.C,D102*%
X149132000Y-66395600D03*
X147032000Y-66395600D03*
%TD*%
D25*
%TO.C,C105*%
X148880000Y-56600000D03*
X147920000Y-56600000D03*
%TD*%
D19*
%TO.C,H101*%
X124968000Y-26416000D03*
%TD*%
D37*
%TO.C,D106*%
X136000000Y-68212500D03*
X136000000Y-69787500D03*
%TD*%
D26*
%TO.C,J101*%
X113027200Y-71433600D03*
D27*
X115027200Y-71433600D03*
X117027200Y-71433600D03*
X119027200Y-71433600D03*
%TD*%
D34*
%TO.C,C111*%
X137400000Y-68320000D03*
X137400000Y-69280000D03*
%TD*%
D14*
%TO.C,Q701*%
X117801509Y-35917824D03*
X117141509Y-35917824D03*
X116491509Y-35917824D03*
X115841509Y-35917824D03*
X117801509Y-38917824D03*
X117151509Y-38917824D03*
D15*
X116821509Y-37767824D03*
D14*
X116491509Y-38917824D03*
X115841509Y-38917824D03*
%TD*%
D11*
%TO.C,R215*%
X113948400Y-56946800D03*
X112928400Y-56946800D03*
%TD*%
D14*
%TO.C,Q501*%
X132214709Y-39152069D03*
X132874709Y-39152069D03*
X133524709Y-39152069D03*
X134174709Y-39152069D03*
X132214709Y-36152069D03*
X132864709Y-36152069D03*
D15*
X133194709Y-37302069D03*
D14*
X133524709Y-36152069D03*
X134174709Y-36152069D03*
%TD*%
D24*
%TO.C,R216*%
X114909600Y-56946800D03*
X115929600Y-56946800D03*
%TD*%
D19*
%TO.C,H104*%
X101249449Y-26162000D03*
%TD*%
D38*
%TO.C,C101*%
X105890000Y-51409600D03*
X102390000Y-51409600D03*
%TD*%
D28*
%TO.C,C205*%
X136144000Y-51178400D03*
X136144000Y-50218400D03*
%TD*%
%TO.C,C209*%
X109067600Y-50822800D03*
X109067600Y-49862800D03*
%TD*%
D10*
%TO.C,C401*%
X129590800Y-40788800D03*
X129590800Y-43738800D03*
%TD*%
D14*
%TO.C,Q802*%
X104833509Y-38898069D03*
X105493509Y-38898069D03*
X106143509Y-38898069D03*
X106793509Y-38898069D03*
X104833509Y-35898069D03*
X105483509Y-35898069D03*
D15*
X105813509Y-37048069D03*
D14*
X106143509Y-35898069D03*
X106793509Y-35898069D03*
%TD*%
D11*
%TO.C,R602*%
X111812800Y-56946800D03*
X110792800Y-56946800D03*
%TD*%
D24*
%TO.C,R214*%
X112926400Y-55930800D03*
X113946400Y-55930800D03*
%TD*%
D10*
%TO.C,C108*%
X116840000Y-40485800D03*
X116840000Y-43435800D03*
%TD*%
D39*
%TO.C,C106*%
X124640400Y-63601600D03*
X125600400Y-63601600D03*
%TD*%
D11*
%TO.C,R204*%
X141429200Y-57048400D03*
X140409200Y-57048400D03*
%TD*%
D24*
%TO.C,R104*%
X116380800Y-45161200D03*
X117400800Y-45161200D03*
%TD*%
D29*
%TO.C,U202*%
X117147260Y-53905424D03*
X117147260Y-53405424D03*
X117147260Y-52905424D03*
X117147260Y-52405424D03*
X117147260Y-51905424D03*
X117147260Y-51405424D03*
X117147260Y-50905424D03*
X117147260Y-50405424D03*
X117147260Y-49905424D03*
X117147260Y-49405424D03*
D30*
X116397260Y-48655424D03*
X115897260Y-48655424D03*
X115397260Y-48655424D03*
X114897260Y-48655424D03*
X114397260Y-48655424D03*
X113897260Y-48655424D03*
X113397260Y-48655424D03*
X112897260Y-48655424D03*
X112397260Y-48655424D03*
X111897260Y-48655424D03*
D29*
X111147260Y-49405424D03*
X111147260Y-49905424D03*
X111147260Y-50405424D03*
X111147260Y-50905424D03*
X111147260Y-51405424D03*
X111147260Y-51905424D03*
X111147260Y-52405424D03*
X111147260Y-52905424D03*
X111147260Y-53405424D03*
X111147260Y-53905424D03*
D30*
X111897260Y-54655424D03*
X112397260Y-54655424D03*
X112897260Y-54655424D03*
X113397260Y-54655424D03*
X113897260Y-54655424D03*
X114397260Y-54655424D03*
X114897260Y-54655424D03*
X115397260Y-54655424D03*
X115897260Y-54655424D03*
X116397260Y-54655424D03*
D31*
X114147260Y-51655424D03*
%TD*%
D39*
%TO.C,C115*%
X126621600Y-63601600D03*
X127581600Y-63601600D03*
%TD*%
D16*
%TO.C,R209*%
X137464800Y-55120000D03*
X137464800Y-54100000D03*
%TD*%
D25*
%TO.C,C116*%
X135880000Y-73660000D03*
X134920000Y-73660000D03*
%TD*%
D18*
%TO.C,Rsns103*%
X105418914Y-40445524D03*
X105418914Y-46370524D03*
%TD*%
D16*
%TO.C,R213*%
X109067600Y-52914666D03*
X109067600Y-51894666D03*
%TD*%
D24*
%TO.C,R105*%
X109116400Y-45161200D03*
X110136400Y-45161200D03*
%TD*%
D40*
%TO.C,U101*%
X146685709Y-58024992D03*
X146685709Y-59924992D03*
X149165709Y-58974992D03*
%TD*%
D18*
%TO.C,Rsns102*%
X112741087Y-40445524D03*
X112741087Y-46370524D03*
%TD*%
D34*
%TO.C,C206*%
X119888000Y-52758400D03*
X119888000Y-53718400D03*
%TD*%
D14*
%TO.C,Q301*%
X146861055Y-39152069D03*
X147521055Y-39152069D03*
X148171055Y-39152069D03*
X148821055Y-39152069D03*
X146861055Y-36152069D03*
X147511055Y-36152069D03*
D15*
X147841055Y-37302069D03*
D14*
X148171055Y-36152069D03*
X148821055Y-36152069D03*
%TD*%
D41*
%TO.C,Q101*%
X144400000Y-62450000D03*
X144400000Y-64350000D03*
X146400000Y-63400000D03*
%TD*%
D24*
%TO.C,R101*%
X116380800Y-46329600D03*
X117400800Y-46329600D03*
%TD*%
D10*
%TO.C,C109*%
X102209600Y-40534800D03*
X102209600Y-43484800D03*
%TD*%
D34*
%TO.C,C114*%
X121869200Y-63426400D03*
X121869200Y-64386400D03*
%TD*%
D24*
%TO.C,R302*%
X143762000Y-46583600D03*
X144782000Y-46583600D03*
%TD*%
%TO.C,R603*%
X114907600Y-55930800D03*
X115927600Y-55930800D03*
%TD*%
%TO.C,R205*%
X142492000Y-56032400D03*
X143512000Y-56032400D03*
%TD*%
D19*
%TO.C,H102*%
X148844000Y-26162000D03*
%TD*%
D42*
%TO.C,J105*%
X139952000Y-69038400D03*
D43*
X139952000Y-73238400D03*
D42*
X148592000Y-69038400D03*
D43*
X148592000Y-73238400D03*
D44*
X143022000Y-68488400D03*
X144022000Y-68488400D03*
X144522000Y-68488400D03*
X145522000Y-68478400D03*
D45*
X146672000Y-68488400D03*
X147472000Y-68488400D03*
D44*
X146022000Y-68488400D03*
X145022000Y-68488400D03*
X143522000Y-68488400D03*
X142522000Y-68478400D03*
D45*
X141872000Y-68488400D03*
X141072000Y-68488400D03*
%TD*%
D10*
%TO.C,C501*%
X137007600Y-40790600D03*
X137007600Y-43740600D03*
%TD*%
D16*
%TO.C,R108*%
X145923000Y-66804000D03*
X145923000Y-65784000D03*
%TD*%
%TO.C,R201*%
X136448800Y-53168666D03*
X136448800Y-52148666D03*
%TD*%
D17*
%TO.C,SW102*%
X141527615Y-65588597D03*
X141527615Y-61228597D03*
%TD*%
D16*
%TO.C,R221*%
X110083600Y-54866000D03*
X110083600Y-53846000D03*
%TD*%
D24*
%TO.C,R502*%
X129030000Y-46482000D03*
X130050000Y-46482000D03*
%TD*%
D46*
%TO.C,U103*%
X132026100Y-72041200D03*
X132026100Y-71541200D03*
X132026100Y-71041200D03*
X132026100Y-70541200D03*
X132026100Y-70041200D03*
X132026100Y-69541200D03*
X132026100Y-69041200D03*
X132026100Y-68541200D03*
X132026100Y-68041200D03*
X132026100Y-67541200D03*
X132026100Y-67041200D03*
X132026100Y-66541200D03*
D47*
X130613600Y-65128700D03*
X130113600Y-65128700D03*
X129613600Y-65128700D03*
X129113600Y-65128700D03*
X128613600Y-65128700D03*
X128113600Y-65128700D03*
X127613600Y-65128700D03*
X127113600Y-65128700D03*
X126613600Y-65128700D03*
X126113600Y-65128700D03*
X125613600Y-65128700D03*
X125113600Y-65128700D03*
D46*
X123701100Y-66541200D03*
X123701100Y-67041200D03*
X123701100Y-67541200D03*
X123701100Y-68041200D03*
X123701100Y-68541200D03*
X123701100Y-69041200D03*
X123701100Y-69541200D03*
X123701100Y-70041200D03*
X123701100Y-70541200D03*
X123701100Y-71041200D03*
X123701100Y-71541200D03*
X123701100Y-72041200D03*
D47*
X125113600Y-73453700D03*
X125613600Y-73453700D03*
X126113600Y-73453700D03*
X126613600Y-73453700D03*
X127113600Y-73453700D03*
X127613600Y-73453700D03*
X128113600Y-73453700D03*
X128613600Y-73453700D03*
X129113600Y-73453700D03*
X129613600Y-73453700D03*
X130113600Y-73453700D03*
X130613600Y-73453700D03*
%TD*%
D24*
%TO.C,R110*%
X121740000Y-49750000D03*
X122760000Y-49750000D03*
%TD*%
%TO.C,R102*%
X109116400Y-46228000D03*
X110136400Y-46228000D03*
%TD*%
D33*
%TO.C,D105*%
X142880000Y-66548000D03*
X143520000Y-66548000D03*
%TD*%
D25*
%TO.C,C102*%
X148897000Y-55395000D03*
X147937000Y-55395000D03*
%TD*%
D11*
%TO.C,R109*%
X137910000Y-73660000D03*
X136890000Y-73660000D03*
%TD*%
D18*
%TO.C,Rsns501*%
X132800114Y-40699524D03*
X132800114Y-46624524D03*
%TD*%
D39*
%TO.C,C104*%
X131727000Y-73660000D03*
X132687000Y-73660000D03*
%TD*%
D14*
%TO.C,Q401*%
X139667449Y-39142800D03*
X140327449Y-39142800D03*
X140977449Y-39142800D03*
X141627449Y-39142800D03*
X139667449Y-36142800D03*
X140317449Y-36142800D03*
D15*
X140647449Y-37292800D03*
D14*
X140977449Y-36142800D03*
X141627449Y-36142800D03*
%TD*%
D48*
%TO.C,C208*%
X118783400Y-55778400D03*
X117233400Y-55778400D03*
%TD*%
D24*
%TO.C,R604*%
X116787200Y-56997600D03*
X117807200Y-56997600D03*
%TD*%
D28*
%TO.C,C107*%
X122017852Y-71745878D03*
X122017852Y-70785878D03*
%TD*%
D18*
%TO.C,Rsns301*%
X147446460Y-40699524D03*
X147446460Y-46624524D03*
%TD*%
D35*
%TO.C,CN201*%
X144230649Y-30480000D03*
X138730649Y-30480000D03*
X133230649Y-30480000D03*
%TD*%
D34*
%TO.C,C201*%
X148384301Y-52143600D03*
X148384301Y-53103600D03*
%TD*%
%TO.C,C103*%
X133800000Y-72926000D03*
X133800000Y-73886000D03*
%TD*%
M02*
